<svg width="10" height="9" viewBox="0 0 10 9" fill="none" xmlns="http://www.w3.org/2000/svg">
<path d="M9.59998 4.46997C9.59998 6.93997 7.44999 8.94 4.79999 8.94C2.14999 8.94 0 6.93997 0 4.46997C0 1.99997 2.14999 0 4.79999 0C7.44999 0 9.59998 1.99997 9.59998 4.46997Z" fill="#009126"/>
<path d="M4.23998 7.05991C4.32998 7.13991 4.41993 7.16989 4.50993 7.15989C4.59993 7.14989 4.68994 7.10989 4.76994 7.03989C4.84994 6.96989 4.90994 6.90989 4.94994 6.84989C5.11994 6.60989 5.29998 6.32991 5.48998 5.98991C5.67998 5.64991 5.87998 5.30988 6.05998 4.95988C6.24998 4.60988 6.41993 4.26992 6.56993 3.93992C6.72993 3.60992 6.84993 3.32988 6.93993 3.08988C7.02993 2.85988 7.07994 2.6599 7.07994 2.4799C7.07994 2.2999 7.00997 2.18987 6.85997 2.13987C6.75997 2.10987 6.65998 2.14987 6.55998 2.26987C6.44998 2.38987 6.35994 2.5399 6.26994 2.7299C6.22994 2.8299 6.14995 2.9999 6.02995 3.2299C5.91995 3.4599 5.77994 3.71987 5.63994 4.01987C5.48994 4.30987 5.32996 4.61991 5.15996 4.92991C4.98996 5.24991 4.81996 5.5299 4.65996 5.7999C4.57996 5.5499 4.47993 5.26987 4.37993 4.94987C4.26993 4.62987 4.15996 4.30991 4.03996 3.98991C3.91996 3.66991 3.79997 3.36988 3.66997 3.08988C3.54997 2.80988 3.41997 2.58991 3.29997 2.42991C3.10997 2.16991 2.93995 2.0599 2.77995 2.1099C2.71995 2.1299 2.67996 2.16989 2.65996 2.21989C2.63996 2.26989 2.63996 2.32988 2.65996 2.39988C2.66996 2.46988 2.69997 2.54992 2.72997 2.62992C2.75997 2.70992 2.78994 2.79988 2.82994 2.89988C2.85994 2.99988 2.90996 3.12991 2.96996 3.30991C3.02996 3.48991 3.09998 3.6899 3.17998 3.9199C3.25998 4.1499 3.32996 4.38987 3.40996 4.63987C3.48996 4.88987 3.56994 5.14987 3.63994 5.38987C3.71994 5.63987 3.78997 5.85987 3.85997 6.07987C3.92997 6.28987 3.97994 6.46991 4.01994 6.61991C4.07994 6.84991 4.14999 6.99987 4.24999 7.07987" fill="white"/>
</svg>
