<svg width="13" height="16" viewBox="0 0 13 16" fill="none" xmlns="http://www.w3.org/2000/svg">
<path fill-rule="evenodd" clip-rule="evenodd" d="M1.16155 7.76048C0.921805 8.15094 0.820809 9.38046 0.903398 10.1965C0.932658 10.4661 0.980794 10.6906 1.05017 10.8247C1.14597 11.0098 1.30737 11.1204 1.49142 11.1265C1.60941 11.1331 1.68256 11.1125 3.89877 10.3883C3.89877 10.3883 4.88371 10.0695 4.88795 10.0672C5.13336 10.0044 5.29853 9.77468 5.31505 9.48125C5.33062 9.18125 5.17772 8.91546 4.92618 8.81984C4.92618 8.81984 4.23244 8.53204 4.23055 8.53204C1.84916 7.53408 1.7425 7.4947 1.62215 7.49329C1.43857 7.48626 1.27434 7.58001 1.16155 7.76048ZM6.48914 15.1965C6.52783 15.0835 6.53208 15.0053 6.53869 12.6395C6.53869 12.6395 6.54435 11.5947 6.54482 11.5834C6.56039 11.3279 6.39805 11.095 6.12999 10.9895C5.85485 10.8822 5.55895 10.9487 5.39283 11.1597C5.39283 11.1597 4.90721 11.7456 4.90532 11.7456C3.23608 13.7364 3.16765 13.8282 3.12659 13.9464C3.10205 14.0167 3.09167 14.0898 3.10064 14.1634C3.11055 14.2684 3.1568 14.3734 3.23514 14.47C3.62166 14.9378 5.47731 15.6315 6.06959 15.5288C6.27582 15.4904 6.42495 15.3727 6.48914 15.1965ZM10.2521 14.3733C10.8113 14.1469 12.0322 12.5696 12.1181 11.9625C12.1474 11.7516 12.0827 11.5693 11.9392 11.4535C11.8458 11.3818 11.7731 11.3536 9.55879 10.6154C9.55879 10.6154 8.58755 10.2891 8.57481 10.283C8.34026 10.1907 8.07125 10.2755 7.89097 10.5029C7.70408 10.7349 7.67483 11.04 7.82443 11.2721L8.21567 11.9185C9.53095 14.0883 9.631 14.2416 9.72586 14.3166C9.87216 14.4338 10.0581 14.453 10.2521 14.3733ZM9.10856 8.78838C11.6254 8.16917 11.7226 8.1359 11.8222 8.06981C11.9742 7.96622 12.0506 7.79136 12.0379 7.57855C12.0379 7.57152 12.0388 7.56497 12.0379 7.557C11.9732 6.92982 10.8897 5.29577 10.3564 5.03093C10.1676 4.93858 9.97787 4.94514 9.82213 5.05154C9.72491 5.11623 9.65271 5.21328 8.30533 7.08545C8.30533 7.08545 7.69606 7.92871 7.68898 7.93668C7.52805 8.13449 7.52664 8.41948 7.68285 8.66322C7.8452 8.91541 8.11986 9.03823 8.3714 8.96745C8.3714 8.96745 8.36103 8.98527 8.35819 8.98902C8.48231 8.94074 8.70459 8.88588 9.10856 8.78838ZM6.58083 6.67678C6.53788 5.66382 6.23821 1.15076 6.20281 0.941227C6.1509 0.752323 6.00602 0.616849 5.796 0.562943C5.15417 0.400757 2.69869 1.10058 2.24327 1.57777C2.09744 1.73245 2.04269 1.92371 2.08658 2.09199C2.15785 2.24199 5.20136 7.10568 5.20136 7.10568C5.65159 7.84677 6.01828 7.73193 6.13815 7.69397C6.25755 7.656 6.62236 7.54114 6.58083 6.67678Z" fill="white"/>
</svg>
