<svg version="1.1" id="Layer_1" xmlns="http://www.w3.org/2000/svg" xmlns:xlink="http://www.w3.org/1999/xlink" x="0px" y="0px"
	 width="210" height="58" viewBox="0 0 630 173" enable-background="new 0 0 630 173" xml:space="preserve">
<path fill="#000000" opacity="1.000000" stroke="none" 
	d="
M1.000000,94.000000 
	C1.000000,63.083931 1.000000,32.167862 1.000000,1.000000 
	C23.686939,1.000000 46.374813,1.000000 69.826767,1.324165 
	C66.791359,3.218885 63.017502,4.855428 59.186028,6.343627 
	C54.170921,8.291565 48.998585,9.874124 44.102776,12.077921 
	C39.782726,14.022545 34.954868,15.824682 31.764782,19.076466 
	C26.157551,24.792143 21.611155,31.552364 16.681215,37.922134 
	C16.235510,38.498013 16.106415,39.405087 16.042303,40.175987 
	C15.661523,44.754601 15.221653,49.333267 15.027323,53.921474 
	C14.498731,66.401749 15.335771,78.596718 19.815706,90.567558 
	C22.722355,98.334419 25.463642,106.083000 31.549486,111.767456 
	C36.945446,116.807518 42.895607,121.380302 49.091045,125.405251 
	C56.221748,130.037811 63.470661,135.135574 71.419815,137.716049 
	C84.789162,142.056030 98.886017,139.158554 112.673729,138.884369 
	C115.413025,138.829895 118.367683,137.876999 120.809929,136.567780 
	C134.043961,129.473373 143.097229,118.686859 147.870300,104.453316 
	C149.235352,100.382599 151.244415,95.951065 150.764175,91.948204 
	C149.410294,80.663315 151.696671,69.317955 148.252319,57.942608 
	C144.734406,46.324280 140.990448,34.842884 135.364410,24.209787 
	C132.500656,18.797325 127.658340,14.046567 122.761627,10.206555 
	C118.147850,6.588422 113.754555,1.001872 106.228363,3.471555 
	C105.199989,3.809011 103.427803,1.879767 102.000000,1.000000 
	C278.277283,1.000000 454.554565,1.000000 630.915894,1.000000 
	C630.915894,58.592175 630.915894,116.184517 630.915894,173.888428 
	C421.000031,173.888428 211.000031,173.888428 1.000000,173.888428 
	C1.000000,159.594818 1.000000,145.266068 1.314088,130.175888 
	C3.096515,129.914902 4.564854,130.415329 6.016159,131.339188 
	C6.190287,135.032944 6.381450,138.303268 6.579439,141.690384 
	C7.761205,142.147293 9.360619,142.503693 10.677386,143.317459 
	C18.957705,148.434708 26.760422,154.561371 35.535877,158.570938 
	C43.514462,162.216446 52.403519,164.651550 61.120071,165.679306 
	C69.810852,166.703995 78.789131,165.381973 87.635223,164.960083 
	C92.209724,164.741928 96.831223,164.589218 101.325813,163.802917 
	C111.230331,162.070160 120.993370,159.131454 130.953964,158.230286 
	C140.555161,157.361618 148.840134,154.327148 156.526550,148.851044 
	C162.334549,144.713181 167.521591,134.120193 165.868011,128.624649 
	C164.964890,125.623230 163.306717,122.849007 162.425568,119.851196 
	C164.129105,119.797699 165.396133,119.865326 167.017792,119.951874 
	C167.017792,114.503532 166.985306,109.372772 167.026901,104.242630 
	C167.068726,99.084450 167.226166,93.926865 167.227173,88.769005 
	C167.227341,87.886551 166.807251,86.313583 166.392212,86.247498 
	C164.999023,86.025703 162.699127,85.816360 162.229767,86.550598 
	C160.874954,88.669914 159.423386,91.271072 159.477631,93.649551 
	C159.670624,102.113518 160.473053,110.563583 160.678802,118.930847 
	C157.274918,117.574211 154.321472,116.009102 151.177322,115.113457 
	C147.393250,114.035530 145.365021,115.911873 145.229553,119.909752 
	C145.174164,121.544151 145.583878,123.794746 144.695663,124.705025 
	C137.904282,131.665176 131.930542,140.284790 122.575523,143.479645 
	C108.329056,148.345001 93.787537,153.399597 78.176453,150.329330 
	C74.817474,149.668716 71.204582,149.605499 68.143768,148.269928 
	C62.151363,145.655151 56.583603,142.071777 50.605316,139.418182 
	C47.376854,137.985153 43.367298,138.233932 40.242901,136.663788 
	C36.217991,134.641098 32.211121,132.906891 28.830828,128.991043 
	C25.050163,124.611374 18.576639,122.363342 11.995325,124.388016 
	C12.014647,124.415291 11.960114,124.369514 11.762793,124.206947 
	C11.035020,124.670914 10.504569,125.297455 9.592932,125.976532 
	C7.979060,125.393799 5.661021,124.721237 5.681361,124.128998 
	C5.887694,118.121078 6.108405,112.067741 7.052679,106.143097 
	C8.152343,99.243507 6.004314,94.278275 1.000000,94.000000 
M223.022354,118.005928 
	C213.385971,119.521103 209.371063,126.826881 209.964371,135.237427 
	C210.186615,138.387726 210.200577,141.581741 209.966080,144.730255 
	C208.888992,159.191925 214.809921,165.146179 230.495895,165.119492 
	C356.467712,164.905243 482.440002,164.999634 608.412170,164.999527 
	C609.745178,164.999527 611.096130,165.139008 612.408203,164.972839 
	C618.477661,164.204041 625.476135,162.085297 626.087402,153.577316 
	C626.547913,147.169083 626.881287,140.741348 626.960632,134.318451 
	C627.093079,123.597412 621.360474,118.002014 610.562256,118.001579 
	C551.408691,117.999176 492.255096,118.000427 433.101501,118.000420 
	C431.149048,118.000420 429.196625,118.000420 427.069916,118.000420 
	C426.041779,109.097565 425.075317,100.728836 424.109070,92.361816 
	C432.143738,91.448158 437.835724,87.538261 440.648743,80.533745 
	C443.942474,72.332169 444.668671,63.626369 438.478180,56.526642 
	C436.173645,53.883659 431.413452,52.983685 427.591614,52.292645 
	C426.367493,52.071312 424.343872,54.932220 423.171722,56.704208 
	C422.878571,57.147331 424.293549,59.629185 425.217346,59.831402 
	C437.927521,62.613541 436.852844,70.120621 433.852356,77.944771 
	C432.461731,81.570946 429.039276,83.822449 425.125366,82.747910 
	C423.677399,82.350380 422.368225,79.268440 422.080627,77.255737 
	C421.380951,72.359871 421.292633,67.374557 421.010071,62.422314 
	C420.915253,60.761082 421.322479,58.987034 420.861511,57.456989 
	C420.479431,56.188824 419.340546,54.899666 418.184875,54.208168 
	C417.506226,53.802105 415.446198,54.247604 415.198669,54.822754 
	C413.923553,57.785221 411.867554,61.053303 412.215485,63.959557 
	C413.590607,75.446129 415.978516,86.807640 417.552307,98.275711 
	C418.432953,104.692986 418.453247,111.228317 418.879486,118.001190 
	C353.525848,118.001190 288.726959,118.001190 223.022354,118.005928 
M566.595764,7.013103 
	C564.265991,7.675468 561.972656,8.661608 559.598389,8.928665 
	C555.441284,9.396259 553.520203,12.020162 554.027283,16.195307 
	C555.486633,28.210560 556.819153,40.244682 557.950012,52.294987 
	C558.565979,58.859676 558.640930,65.474136 559.042297,72.061119 
	C559.098938,72.991188 559.352051,74.256889 559.988831,74.734482 
	C561.493347,75.862854 563.283691,76.609978 564.958496,77.511253 
	C565.638672,76.060860 566.716980,74.655640 566.888184,73.147507 
	C567.062500,71.610817 566.268677,69.984055 566.031494,68.377144 
	C565.309509,63.485104 566.487427,62.113731 571.403503,62.000526 
	C578.145691,61.845272 581.453735,67.060669 584.568481,71.478897 
	C588.351562,76.845253 589.675415,77.457603 592.765381,73.530762 
	C595.169434,75.942986 597.254578,79.600471 600.272888,80.703011 
	C604.997314,82.428757 609.466125,80.587364 609.479309,77.512672 
	C612.718567,80.553368 616.516479,82.988403 620.564453,84.891586 
	C622.312622,85.713554 624.577759,85.436287 626.608032,85.658356 
	C626.728516,83.718918 627.625244,81.333458 626.817383,79.927490 
	C624.765076,76.355690 621.959900,73.214523 619.437012,69.915558 
	C616.164368,65.636154 613.170166,61.094677 609.517029,57.167454 
	C604.650757,51.935993 599.285461,53.436371 596.918213,60.271626 
	C596.034973,62.821758 595.104858,65.355652 594.266052,67.701477 
	C587.642151,62.123707 583.678528,53.963223 574.051819,52.904823 
	C575.959778,50.090584 577.633728,47.679680 579.247314,45.229046 
	C582.436218,40.385956 585.547852,35.458118 583.667603,29.266338 
	C582.585693,25.703747 581.342346,22.167662 579.862854,18.753443 
	C577.416870,13.108711 574.697815,7.597053 566.595764,7.013103 
M355.003326,29.513300 
	C350.741302,27.552788 346.389801,25.762619 342.242035,23.584505 
	C337.984528,21.348753 336.297211,25.468090 333.876984,27.044392 
	C332.644379,27.847223 332.339386,31.180782 332.735321,33.144520 
	C333.531708,37.094452 335.679138,40.809425 336.222900,44.765160 
	C337.400238,53.329845 338.095490,61.974224 338.626831,70.608231 
	C338.868042,74.527596 337.791718,78.542175 338.151459,82.436119 
	C338.508484,86.300873 340.947601,88.635994 345.337646,88.030731 
	C346.439026,87.878876 348.030365,87.848160 348.688660,88.488960 
	C352.158020,91.866241 355.163910,90.516762 358.001587,87.814423 
	C360.402069,85.528442 362.602325,83.031410 364.878448,80.615791 
	C370.938690,74.184143 375.155579,66.754921 377.048401,58.072155 
	C378.127930,53.120060 376.230438,49.188629 371.508057,48.126503 
	C368.591553,47.470551 365.407349,48.004936 361.994507,48.004936 
	C363.928619,40.983940 357.930450,36.177643 355.003326,29.513300 
M235.980591,34.527153 
	C238.508209,33.009777 241.128036,31.622667 243.527298,29.923973 
	C244.869308,28.973797 246.661346,27.561266 246.748428,26.256779 
	C246.829529,25.041904 245.156021,22.948742 243.846420,22.534880 
	C238.382385,20.808109 231.205704,22.162922 228.924149,29.681702 
	C226.690842,37.041550 223.976974,44.255573 221.474045,51.533604 
	C220.982758,51.525074 220.491455,51.516544 220.000168,51.508015 
	C220.000168,44.786304 219.961807,38.064232 220.025894,31.343134 
	C220.042877,29.560932 220.016159,27.643576 220.637527,26.030136 
	C221.902191,22.746338 220.387009,17.444019 217.348984,15.799059 
	C213.965637,13.967124 210.969254,15.079642 210.218414,18.767033 
	C209.835007,20.650007 210.161118,22.706957 210.338181,24.669790 
	C211.532333,37.907627 212.916504,51.130310 213.928589,64.381622 
	C214.348022,69.873497 213.653809,75.454704 214.139404,80.935631 
	C214.422195,84.127563 214.878937,88.630959 219.831924,87.823158 
	C222.270477,87.425446 224.864853,85.580589 226.545486,83.654739 
	C228.045410,81.935959 226.510757,80.732727 224.496399,79.445496 
	C222.180405,77.965523 224.656967,64.129677 227.421066,60.949772 
	C230.867691,65.765465 234.303421,70.519669 237.687225,75.310555 
	C239.845016,78.365616 241.539734,81.885918 244.202637,84.388252 
	C245.551926,85.656181 248.586716,85.130463 250.859482,85.415665 
	C250.797699,82.991173 251.659729,79.928215 250.505783,78.258537 
	C246.607590,72.618164 241.685944,67.688713 237.741165,62.075909 
	C233.834381,56.517178 227.349518,51.494553 231.990341,43.144119 
	C233.404541,40.599472 234.309631,37.771866 235.980591,34.527153 
M460.000122,56.615288 
	C460.335175,63.708721 460.531586,70.812759 461.073090,77.890396 
	C461.291626,80.746925 462.095673,84.649216 465.805481,83.612480 
	C467.693512,83.084854 468.716461,79.175301 469.911987,76.689453 
	C470.160706,76.172295 469.289734,75.209763 469.199097,74.422058 
	C468.060730,64.531532 466.970978,54.635422 465.888428,44.916824 
	C472.997406,55.408932 479.952332,65.805809 487.057739,76.098824 
	C490.127075,80.545151 498.413391,81.786865 501.290619,78.006081 
	C506.052826,71.748276 509.409851,64.842728 510.078461,56.689877 
	C511.111633,44.090912 506.809326,32.853123 501.905029,21.741705 
	C501.352966,20.490913 499.278870,19.195030 497.930206,19.215502 
	C496.596954,19.235739 494.717041,20.610718 494.072754,21.892115 
	C491.829041,26.354864 494.290253,30.154455 496.967407,33.324600 
	C505.207153,43.081680 504.759735,53.886353 500.519592,64.717552 
	C497.513367,72.396812 494.854065,72.539238 489.312469,66.780846 
	C488.416077,65.849358 487.680298,64.751259 486.944183,63.679451 
	C478.835785,51.873638 470.721100,40.089088 466.807953,26.003254 
	C466.455322,24.733965 464.235474,23.330851 462.790741,23.223007 
	C461.625000,23.135988 459.615784,24.684132 459.223083,25.906116 
	C458.389984,28.498331 457.937378,31.375769 458.094849,34.091850 
	C458.512543,41.297348 459.337311,48.479256 460.000122,56.615288 
M301.658966,78.817757 
	C302.321411,74.296745 301.806519,69.358070 307.368317,64.688316 
	C308.727478,71.776825 310.133423,77.670128 310.893982,83.645584 
	C311.313049,86.938148 312.094391,88.963684 315.785492,89.025444 
	C319.656128,89.090218 320.723907,86.199295 320.494995,83.584732 
	C319.772491,75.331863 317.881439,67.269295 313.932983,59.885479 
	C311.705627,55.720222 307.360168,54.161373 303.291931,56.474586 
	C300.689514,57.954350 298.769348,60.633968 296.559174,62.760422 
	C294.711792,52.271374 286.344452,48.004421 280.242523,54.897873 
	C277.960052,53.876858 275.953125,52.979107 273.946167,52.081348 
	C273.297974,54.096088 271.773529,56.297058 272.155243,58.092918 
	C273.702148,65.371323 274.091431,72.547333 273.267761,79.972183 
	C273.069611,81.758041 276.199158,83.913063 277.798370,85.898300 
	C279.522614,84.165825 281.605011,82.650581 282.836914,80.619476 
	C283.576935,79.399323 282.782593,77.341675 283.039734,75.717712 
	C283.759857,71.169754 284.668060,66.651566 285.502075,62.121632 
	C285.995178,62.116783 286.488281,62.111935 286.981384,62.107086 
	C287.651825,63.545712 288.664337,64.924271 288.929443,66.434067 
	C289.771240,71.228577 290.067383,76.132370 291.137329,80.866699 
	C291.562012,82.745865 293.253235,85.394119 294.752380,85.680725 
	C296.276123,85.972054 298.420868,83.957458 299.998627,82.607780 
	C300.734833,81.978004 300.775055,80.534592 301.658966,78.817757 
M537.998596,79.491402 
	C538.648438,80.241112 539.164978,81.211296 539.972839,81.699585 
	C542.489197,83.220512 545.204102,85.786079 547.673889,85.608482 
	C549.952209,85.444656 552.455017,82.574547 554.054504,80.324593 
	C555.907898,77.717545 554.195862,75.090523 550.993530,75.059364 
	C549.779785,75.047554 548.560730,75.578255 546.892700,75.966835 
	C544.672119,72.173775 542.456848,68.428970 540.280945,64.661415 
	C538.351379,61.320377 533.184631,60.826591 530.718262,63.851238 
	C529.694336,65.106995 529.008911,66.637405 527.994995,67.903061 
	C525.786011,70.660507 522.605957,73.806084 519.499207,71.390076 
	C516.167053,68.798729 519.761902,65.654434 521.474548,63.085915 
	C522.004761,62.290699 522.836426,61.410858 523.697449,61.171448 
	C527.349182,60.155979 528.182129,56.987900 526.511108,54.876785 
	C525.413147,53.489594 521.362671,53.347649 519.171082,54.137424 
	C514.082886,55.971050 511.720306,60.635178 510.022797,65.493477 
	C507.973724,71.358070 510.200806,77.919853 515.419678,80.043404 
	C520.663818,82.177216 528.032898,81.893661 531.041748,75.974045 
	C531.590454,74.894562 532.616577,74.057770 533.632324,72.861679 
	C535.069153,75.135887 536.280518,77.053345 537.998596,79.491402 
M409.521362,82.088928 
	C412.879852,78.559601 412.639038,76.935890 409.069000,73.948463 
	C406.853943,72.094925 405.073730,69.710464 403.163818,67.507561 
	C401.945801,66.102684 400.847534,64.593994 400.466858,64.110825 
	C399.930756,61.404720 400.173370,59.024311 399.098969,57.873665 
	C395.708832,54.242973 384.956696,55.223267 382.343536,59.381290 
	C379.235443,64.326981 376.197266,69.403763 373.965027,74.771500 
	C373.020966,77.041496 373.191040,80.994606 374.610413,82.810043 
	C379.888489,89.561127 391.537689,88.357666 395.975616,81.068031 
	C396.607910,80.029427 397.167511,78.946564 397.160767,78.958595 
	C401.518982,80.303566 405.213806,81.443810 409.521362,82.088928 
M253.000259,56.371216 
	C253.000946,63.865108 252.802536,71.367165 253.109406,78.848495 
	C253.218018,81.496323 253.904022,84.674492 255.547638,86.527077 
	C256.823730,87.965408 260.005554,88.054184 262.321259,87.995171 
	C262.919525,87.979919 264.074188,85.080345 263.906769,83.628700 
	C262.499390,71.425369 260.829498,59.276558 262.769470,46.934010 
	C263.023376,45.318611 261.408752,42.440975 259.947540,41.817951 
	C258.681519,41.278160 255.198898,42.723244 254.802292,43.964214 
	C253.638855,47.604397 253.525085,51.580055 253.000259,56.371216 
M169.340271,106.051628 
	C169.419266,112.815590 169.373077,119.585098 169.671936,126.339333 
	C169.740173,127.881569 170.999557,129.371094 171.710709,130.884888 
	C172.699448,129.454407 174.378143,128.108246 174.564896,126.579788 
	C175.775665,116.669968 176.469040,106.695389 177.757919,96.797501 
	C178.211487,93.314369 176.642899,93.869179 174.377457,93.671547 
	C170.254227,93.311836 168.760010,94.704643 169.495331,98.834435 
	C169.865234,100.911911 169.649460,103.093674 169.340271,106.051628 
M252.964493,21.006577 
	C251.646057,22.721178 249.611557,24.316822 249.298935,26.198521 
	C249.132431,27.200771 251.811676,28.922220 253.456863,29.896051 
	C254.636917,30.594576 256.251160,30.918697 257.638123,30.837395 
	C261.026825,30.638754 264.187347,29.480282 264.887390,25.717636 
	C265.594788,21.915283 261.845795,21.992823 259.738953,21.173882 
	C258.009827,20.501759 255.820389,21.013815 252.964493,21.006577 
z"/>
<path fill="#FCFCFC" opacity="1.000000" stroke="none" 
	d="
M101.531342,1.000000 
	C103.427803,1.879767 105.199989,3.809011 106.228363,3.471555 
	C113.754555,1.001872 118.147850,6.588422 122.761627,10.206555 
	C127.658340,14.046567 132.500656,18.797325 135.364410,24.209787 
	C140.990448,34.842884 144.734406,46.324280 148.252319,57.942608 
	C151.696671,69.317955 149.410294,80.663315 150.764175,91.948204 
	C151.244415,95.951065 149.235352,100.382599 147.870300,104.453316 
	C143.097229,118.686859 134.043961,129.473373 120.809929,136.567780 
	C118.367683,137.876999 115.413025,138.829895 112.673729,138.884369 
	C98.886017,139.158554 84.789162,142.056030 71.419815,137.716049 
	C63.470661,135.135574 56.221748,130.037811 49.091045,125.405251 
	C42.895607,121.380302 36.945446,116.807518 31.549486,111.767456 
	C25.463642,106.083000 22.722355,98.334419 19.815706,90.567558 
	C15.335771,78.596718 14.498731,66.401749 15.027323,53.921474 
	C15.221653,49.333267 15.661523,44.754601 16.042303,40.175987 
	C16.106415,39.405087 16.235510,38.498013 16.681215,37.922134 
	C21.611155,31.552364 26.157551,24.792143 31.764782,19.076466 
	C34.954868,15.824682 39.782726,14.022545 44.102776,12.077921 
	C48.998585,9.874124 54.170921,8.291565 59.186028,6.343627 
	C63.017502,4.855428 66.791359,3.218885 70.295425,1.324165 
	C80.354225,1.000000 90.708458,1.000000 101.531342,1.000000 
M110.272652,113.022102 
	C112.851181,111.887428 115.956291,111.317123 117.900780,109.502884 
	C122.210732,105.481667 126.729027,101.302582 129.674042,96.309944 
	C132.457047,91.591988 133.560455,85.811272 135.009598,80.392883 
	C138.454437,67.512512 136.203033,54.586807 130.359558,43.508453 
	C123.341278,30.202848 113.454041,18.360567 95.942261,18.283678 
	C90.903465,18.261555 85.832001,18.218990 80.840446,18.771963 
	C78.989494,18.977018 77.462700,21.298136 75.550323,21.904915 
	C68.773972,24.054991 61.812607,25.636892 55.079556,27.903957 
	C49.153755,29.899216 43.684349,33.016376 40.700638,38.846848 
	C38.019257,44.086533 33.012123,48.238556 32.931030,54.712414 
	C32.862343,60.195843 32.743134,65.693077 33.050312,71.161514 
	C33.243958,74.608795 33.705887,78.191223 34.898582,81.396309 
	C36.607151,85.987671 38.580170,90.652985 41.387077,94.616158 
	C44.364914,98.820679 47.942272,103.012993 52.184086,105.801704 
	C57.085320,109.023956 62.940693,110.855202 68.490700,113.009880 
	C72.428413,114.538605 76.563889,116.706474 80.580780,116.643867 
	C88.974411,116.513031 97.351273,115.124756 105.726227,114.175385 
	C106.976761,114.033630 108.179626,113.471367 110.272652,113.022102 
z"/>
<path fill="#F8F8F8" opacity="1.000000" stroke="none" 
	d="
M1.000000,94.468658 
	C6.004314,94.278275 8.152343,99.243507 7.052679,106.143097 
	C6.108405,112.067741 5.887694,118.121078 5.681361,124.128998 
	C5.661021,124.721237 7.979060,125.393799 9.557837,126.305878 
	C8.613685,128.027039 7.323440,129.471405 6.033194,130.915771 
	C4.564854,130.415329 3.096515,129.914902 1.314088,129.707230 
	C1.000000,118.312439 1.000000,106.624878 1.000000,94.468658 
z"/>
<path fill="#EF3F57" opacity="1.000000" stroke="none" 
	d="
M223.475220,118.003555 
	C288.726959,118.001190 353.525848,118.001190 418.879486,118.001190 
	C418.453247,111.228317 418.432953,104.692986 417.552307,98.275711 
	C415.978516,86.807640 413.590607,75.446129 412.215485,63.959557 
	C411.867554,61.053303 413.923553,57.785221 415.198669,54.822754 
	C415.446198,54.247604 417.506226,53.802105 418.184875,54.208168 
	C419.340546,54.899666 420.479431,56.188824 420.861511,57.456989 
	C421.322479,58.987034 420.915253,60.761082 421.010071,62.422314 
	C421.292633,67.374557 421.380951,72.359871 422.080627,77.255737 
	C422.368225,79.268440 423.677399,82.350380 425.125366,82.747910 
	C429.039276,83.822449 432.461731,81.570946 433.852356,77.944771 
	C436.852844,70.120621 437.927521,62.613541 425.217346,59.831402 
	C424.293549,59.629185 422.878571,57.147331 423.171722,56.704208 
	C424.343872,54.932220 426.367493,52.071312 427.591614,52.292645 
	C431.413452,52.983685 436.173645,53.883659 438.478180,56.526642 
	C444.668671,63.626369 443.942474,72.332169 440.648743,80.533745 
	C437.835724,87.538261 432.143738,91.448158 424.109070,92.361816 
	C425.075317,100.728836 426.041779,109.097565 427.069916,118.000420 
	C429.196625,118.000420 431.149048,118.000420 433.101501,118.000420 
	C492.255096,118.000427 551.408691,117.999176 610.562256,118.001579 
	C621.360474,118.002014 627.093079,123.597412 626.960632,134.318451 
	C626.881287,140.741348 626.547913,147.169083 626.087402,153.577316 
	C625.476135,162.085297 618.477661,164.204041 612.408203,164.972839 
	C611.096130,165.139008 609.745178,164.999527 608.412170,164.999527 
	C482.440002,164.999634 356.467712,164.905243 230.495895,165.119492 
	C214.809921,165.146179 208.888992,159.191925 209.966080,144.730255 
	C210.200577,141.581741 210.186615,138.387726 209.964371,135.237427 
	C209.371063,126.826881 213.385971,119.521103 223.475220,118.003555 
M371.723938,140.324982 
	C374.920593,137.451920 378.117249,134.578857 381.494781,131.543213 
	C379.245667,131.543213 376.792175,131.543213 374.363495,131.543213 
	C374.100525,127.504799 375.613678,122.769402 370.056488,121.154686 
	C369.739960,127.084618 369.290039,132.427902 369.307495,137.769684 
	C369.311005,138.849457 371.082733,139.923477 372.605927,141.718826 
	C372.253845,143.093643 371.901733,144.468460 371.166992,147.337265 
	C368.347656,145.630295 366.234894,144.268127 364.037537,143.059860 
	C363.102386,142.545639 361.990143,142.353485 360.355530,141.428543 
	C362.125854,136.741776 364.172363,132.134613 365.555237,127.336189 
	C366.297028,124.762299 364.933105,122.912758 361.510498,123.612656 
	C361.510498,126.003540 361.510498,128.240662 361.510498,130.630920 
	C359.705414,130.944839 358.120850,131.220413 357.262482,131.369690 
	C355.599915,128.946823 354.131104,126.806374 352.662292,124.665924 
	C352.025665,124.976929 351.389038,125.287933 350.752411,125.598930 
	C351.352020,128.596268 351.940216,131.595932 352.553925,134.590378 
	C353.497620,139.194885 356.090851,141.920059 361.205963,142.754135 
	C362.485260,154.057022 366.736969,157.131836 373.479187,154.049652 
	C374.143494,150.848450 374.488434,147.921127 375.386749,145.174835 
	C376.529816,141.680435 375.286682,140.639175 371.723938,140.324982 
M466.510376,137.820587 
	C465.429688,137.937653 464.176300,137.743378 463.300171,138.229279 
	C460.507172,139.778244 457.854401,141.580063 455.147491,143.284225 
	C454.494598,140.012634 453.840088,136.741364 453.193787,133.468475 
	C453.162537,133.310074 453.275726,133.087570 453.200409,132.978943 
	C452.515747,131.990952 451.804138,131.021637 451.100403,130.046860 
	C450.281464,130.906067 448.677582,131.868851 448.775024,132.607117 
	C449.284912,136.470779 449.608582,140.553986 451.167603,144.036865 
	C453.310303,148.823715 456.836182,149.352509 460.717102,145.843216 
	C463.123688,143.667084 464.907013,140.801697 467.406464,139.253174 
	C467.111023,141.387985 466.574188,143.527039 466.611633,145.656006 
	C466.633728,146.911133 467.566162,148.150253 468.089142,149.396576 
	C468.994537,148.407532 470.618469,147.460846 470.679749,146.422028 
	C470.932098,142.142853 473.716095,140.447342 477.112946,139.091995 
	C478.111969,138.693405 479.027771,138.086243 479.981689,137.574661 
	C479.930420,137.290314 479.879150,137.005981 479.827881,136.721649 
	C477.359436,136.721649 474.891022,136.721649 472.263397,136.721649 
	C471.929688,132.845322 472.291504,128.586014 467.502106,127.210358 
	C467.318970,131.115463 467.145752,134.809723 466.510376,137.820587 
M553.989075,140.130615 
	C554.436462,140.461197 554.883850,140.791763 555.331238,141.122360 
	C554.177612,142.542480 552.889893,143.878326 551.923401,145.416061 
	C551.390320,146.264145 550.891785,148.054184 551.261414,148.363449 
	C552.107239,149.071213 553.631409,149.631042 554.639099,149.358795 
	C557.708435,148.529587 560.663574,147.277817 564.649719,145.832916 
	C562.284363,144.901031 560.745850,144.294891 559.217285,143.682297 
	C563.937927,137.886566 556.671753,138.828201 555.126099,136.436478 
	C556.774597,134.265945 558.441711,132.070969 560.405579,129.485199 
	C555.676758,126.736641 551.496887,126.320160 547.176514,128.473557 
	C547.139648,128.995728 547.102783,129.517914 547.065918,130.040085 
	C549.196411,130.144608 551.326965,130.249130 553.489319,130.355225 
	C552.388062,132.518463 550.902283,134.359711 550.641968,136.360382 
	C550.490662,137.523849 552.305054,138.943054 553.989075,140.130615 
M566.866577,138.208527 
	C566.502747,140.328491 565.853760,142.450851 565.871521,144.567612 
	C565.884155,146.072159 566.795593,147.569153 567.305786,149.069504 
	C568.178833,147.885651 569.020386,146.676910 569.931824,145.523376 
	C571.576111,143.442276 573.104858,141.232101 574.994385,139.397812 
	C576.001648,138.419998 577.662842,138.115799 579.028809,137.507553 
	C578.906738,137.146515 578.784668,136.785477 578.662598,136.424438 
	C576.307922,136.424438 573.953308,136.424438 571.378418,136.424438 
	C570.786011,133.063843 571.492615,128.601974 566.070312,126.842674 
	C566.365723,130.595749 566.631348,133.970230 566.866577,138.208527 
M271.844330,149.643524 
	C273.215881,148.176987 274.587433,146.710449 275.958984,145.243927 
	C276.521759,145.641174 277.084534,146.038437 277.647308,146.435684 
	C276.563232,148.865570 275.479156,151.295456 273.918518,154.793564 
	C277.446381,153.759277 280.052551,152.995209 281.873688,152.461288 
	C282.629852,142.617493 277.160522,141.784119 268.693573,144.194504 
	C268.940002,147.252579 269.235352,150.918137 269.530731,154.583694 
	C270.201752,154.564224 270.872742,154.544739 271.543732,154.525269 
	C271.643066,153.172485 271.742401,151.819687 271.844330,149.643524 
M266.722992,126.822411 
	C261.306335,124.117126 257.993195,125.083015 256.284760,130.418060 
	C259.143158,129.535370 261.656921,128.759109 264.244629,127.959999 
	C266.202301,132.658569 263.638947,135.682358 261.888489,138.997467 
	C261.426666,139.872055 261.985016,141.285294 262.074890,142.451187 
	C263.211395,142.151291 264.708710,142.210022 265.423431,141.490921 
	C268.975830,137.916733 269.652313,131.933044 266.722992,126.822411 
M281.192139,133.396896 
	C280.712952,129.059509 282.530640,123.821297 276.306946,120.764023 
	C276.727386,128.416962 277.097229,135.149155 277.467102,141.881348 
	C278.200867,141.920853 278.934601,141.960358 279.668365,141.999847 
	C280.174500,139.440994 280.680634,136.882126 281.192139,133.396896 
z"/>
<path fill="#FCFCFC" opacity="1.000000" stroke="none" 
	d="
M6.016159,131.339188 
	C7.323440,129.471405 8.613685,128.027039 9.939024,126.253334 
	C10.504569,125.297455 11.035020,124.670914 11.869947,124.425568 
	C12.308655,124.883247 12.442885,124.959740 12.577116,125.036232 
	C12.376746,124.811066 12.176375,124.585907 11.976004,124.360741 
	C18.576639,122.363342 25.050163,124.611374 28.830828,128.991043 
	C32.211121,132.906891 36.217991,134.641098 40.242901,136.663788 
	C43.367298,138.233932 47.376854,137.985153 50.605316,139.418182 
	C56.583603,142.071777 62.151363,145.655151 68.143768,148.269928 
	C71.204582,149.605499 74.817474,149.668716 78.176453,150.329330 
	C93.787537,153.399597 108.329056,148.345001 122.575523,143.479645 
	C131.930542,140.284790 137.904282,131.665176 144.695663,124.705025 
	C145.583878,123.794746 145.174164,121.544151 145.229553,119.909752 
	C145.365021,115.911873 147.393250,114.035530 151.177322,115.113457 
	C154.321472,116.009102 157.274918,117.574211 160.878998,119.043236 
	C161.694427,119.435829 161.875717,119.678703 161.989059,119.972321 
	C163.306717,122.849007 164.964890,125.623230 165.868011,128.624649 
	C167.521591,134.120193 162.334549,144.713181 156.526550,148.851044 
	C148.840134,154.327148 140.555161,157.361618 130.953964,158.230286 
	C120.993370,159.131454 111.230331,162.070160 101.325813,163.802917 
	C96.831223,164.589218 92.209724,164.741928 87.635223,164.960083 
	C78.789131,165.381973 69.810852,166.703995 61.120071,165.679306 
	C52.403519,164.651550 43.514462,162.216446 35.535877,158.570938 
	C26.760422,154.561371 18.957705,148.434708 10.677386,143.317459 
	C9.360619,142.503693 7.761205,142.147293 6.579439,141.690384 
	C6.381450,138.303268 6.190287,135.032944 6.016159,131.339188 
z"/>
<path fill="#EF3E56" opacity="1.000000" stroke="none" 
	d="
M567.007324,7.007983 
	C574.697815,7.597053 577.416870,13.108711 579.862854,18.753443 
	C581.342346,22.167662 582.585693,25.703747 583.667603,29.266338 
	C585.547852,35.458118 582.436218,40.385956 579.247314,45.229046 
	C577.633728,47.679680 575.959778,50.090584 574.051819,52.904823 
	C583.678528,53.963223 587.642151,62.123707 594.266052,67.701477 
	C595.104858,65.355652 596.034973,62.821758 596.918213,60.271626 
	C599.285461,53.436371 604.650757,51.935993 609.517029,57.167454 
	C613.170166,61.094677 616.164368,65.636154 619.437012,69.915558 
	C621.959900,73.214523 624.765076,76.355690 626.817383,79.927490 
	C627.625244,81.333458 626.728516,83.718918 626.608032,85.658356 
	C624.577759,85.436287 622.312622,85.713554 620.564453,84.891586 
	C616.516479,82.988403 612.718567,80.553368 609.479309,77.512672 
	C609.466125,80.587364 604.997314,82.428757 600.272888,80.703011 
	C597.254578,79.600471 595.169434,75.942986 592.765381,73.530762 
	C589.675415,77.457603 588.351562,76.845253 584.568481,71.478897 
	C581.453735,67.060669 578.145691,61.845272 571.403503,62.000526 
	C566.487427,62.113731 565.309509,63.485104 566.031494,68.377144 
	C566.268677,69.984055 567.062500,71.610817 566.888184,73.147507 
	C566.716980,74.655640 565.638672,76.060860 564.958496,77.511269 
	C563.283691,76.609978 561.493347,75.862854 559.988831,74.734482 
	C559.352051,74.256889 559.098938,72.991188 559.042297,72.061119 
	C558.640930,65.474136 558.565979,58.859676 557.950012,52.294987 
	C556.819153,40.244682 555.486633,28.210560 554.027283,16.195307 
	C553.520203,12.020162 555.441284,9.396259 559.598389,8.928665 
	C561.972656,8.661608 564.265991,7.675468 567.007324,7.007983 
M566.987244,51.523506 
	C569.014282,48.569618 571.053040,45.623699 573.066040,42.660278 
	C577.964233,35.449333 577.074463,27.998318 573.201477,20.908731 
	C571.986328,18.684507 569.069275,16.929613 566.547791,15.998280 
	C563.526001,14.882191 561.698242,16.557976 562.060913,20.045044 
	C562.737915,26.555424 563.346069,33.072945 564.004272,39.585323 
	C564.468567,44.178860 564.968201,48.768829 565.491211,53.732094 
	C565.986389,52.880764 566.230347,52.461266 566.987244,51.523506 
z"/>
<path fill="#EF3E56" opacity="1.000000" stroke="none" 
	d="
M355.266235,29.782001 
	C357.930450,36.177643 363.928619,40.983940 361.994507,48.004936 
	C365.407349,48.004936 368.591553,47.470551 371.508057,48.126503 
	C376.230438,49.188629 378.127930,53.120060 377.048401,58.072155 
	C375.155579,66.754921 370.938690,74.184143 364.878448,80.615791 
	C362.602325,83.031410 360.402069,85.528442 358.001587,87.814423 
	C355.163910,90.516762 352.158020,91.866241 348.688660,88.488960 
	C348.030365,87.848160 346.439026,87.878876 345.337646,88.030731 
	C340.947601,88.635994 338.508484,86.300873 338.151459,82.436119 
	C337.791718,78.542175 338.868042,74.527596 338.626831,70.608231 
	C338.095490,61.974224 337.400238,53.329845 336.222900,44.765160 
	C335.679138,40.809425 333.531708,37.094452 332.735321,33.144520 
	C332.339386,31.180782 332.644379,27.847223 333.876984,27.044392 
	C336.297211,25.468090 337.984528,21.348753 342.242035,23.584505 
	C346.389801,25.762619 350.741302,27.552788 355.266235,29.782001 
M356.512970,77.991226 
	C362.094940,73.706055 365.682922,68.019272 367.985504,61.472507 
	C369.643524,56.758228 367.942932,54.512978 363.247437,56.223965 
	C358.517487,57.947495 354.460968,61.436394 349.833374,63.546494 
	C345.168274,65.673683 345.705994,69.485962 346.100647,73.116196 
	C346.520050,76.973724 347.654419,80.753510 348.481689,84.590775 
	C351.173187,82.410202 353.587006,80.454582 356.512970,77.991226 
M344.000305,46.542088 
	C344.472626,49.257782 344.944977,51.973480 345.416626,54.685246 
	C350.635254,53.130840 354.082062,49.485977 353.888947,45.694164 
	C353.601715,40.054989 347.500214,33.332664 340.506439,31.949903 
	C341.741516,36.821537 342.865234,41.253822 344.000305,46.542088 
z"/>
<path fill="#EF3E56" opacity="1.000000" stroke="none" 
	d="
M235.714233,34.800503 
	C234.309631,37.771866 233.404541,40.599472 231.990341,43.144119 
	C227.349518,51.494553 233.834381,56.517178 237.741165,62.075909 
	C241.685944,67.688713 246.607590,72.618164 250.505783,78.258537 
	C251.659729,79.928215 250.797699,82.991173 250.859482,85.415665 
	C248.586716,85.130463 245.551926,85.656181 244.202637,84.388252 
	C241.539734,81.885918 239.845016,78.365616 237.687225,75.310555 
	C234.303421,70.519669 230.867691,65.765465 227.421066,60.949772 
	C224.656967,64.129677 222.180405,77.965523 224.496399,79.445496 
	C226.510757,80.732727 228.045410,81.935959 226.545486,83.654739 
	C224.864853,85.580589 222.270477,87.425446 219.831924,87.823158 
	C214.878937,88.630959 214.422195,84.127563 214.139404,80.935631 
	C213.653809,75.454704 214.348022,69.873497 213.928589,64.381622 
	C212.916504,51.130310 211.532333,37.907627 210.338181,24.669790 
	C210.161118,22.706957 209.835007,20.650007 210.218414,18.767033 
	C210.969254,15.079642 213.965637,13.967124 217.348984,15.799059 
	C220.387009,17.444019 221.902191,22.746338 220.637527,26.030136 
	C220.016159,27.643576 220.042877,29.560932 220.025894,31.343134 
	C219.961807,38.064232 220.000168,44.786304 220.000168,51.508015 
	C220.491455,51.516544 220.982758,51.525074 221.474045,51.533604 
	C223.976974,44.255573 226.690842,37.041550 228.924149,29.681702 
	C231.205704,22.162922 238.382385,20.808109 243.846420,22.534880 
	C245.156021,22.948742 246.829529,25.041904 246.748428,26.256779 
	C246.661346,27.561266 244.869308,28.973797 243.527298,29.923973 
	C241.128036,31.622667 238.508209,33.009777 235.714233,34.800503 
z"/>
<path fill="#EF3E56" opacity="1.000000" stroke="none" 
	d="
M460.000122,56.142918 
	C459.337311,48.479256 458.512543,41.297348 458.094849,34.091850 
	C457.937378,31.375769 458.389984,28.498331 459.223083,25.906116 
	C459.615784,24.684132 461.625000,23.135988 462.790741,23.223007 
	C464.235474,23.330851 466.455322,24.733965 466.807953,26.003254 
	C470.721100,40.089088 478.835785,51.873638 486.944183,63.679451 
	C487.680298,64.751259 488.416077,65.849358 489.312469,66.780846 
	C494.854065,72.539238 497.513367,72.396812 500.519592,64.717552 
	C504.759735,53.886353 505.207153,43.081680 496.967407,33.324600 
	C494.290253,30.154455 491.829041,26.354864 494.072754,21.892115 
	C494.717041,20.610718 496.596954,19.235739 497.930206,19.215502 
	C499.278870,19.195030 501.352966,20.490913 501.905029,21.741705 
	C506.809326,32.853123 511.111633,44.090912 510.078461,56.689877 
	C509.409851,64.842728 506.052826,71.748276 501.290619,78.006081 
	C498.413391,81.786865 490.127075,80.545151 487.057739,76.098824 
	C479.952332,65.805809 472.997406,55.408932 465.888428,44.916824 
	C466.970978,54.635422 468.060730,64.531532 469.199097,74.422058 
	C469.289734,75.209763 470.160706,76.172295 469.911987,76.689453 
	C468.716461,79.175301 467.693512,83.084854 465.805481,83.612480 
	C462.095673,84.649216 461.291626,80.746925 461.073090,77.890396 
	C460.531586,70.812759 460.335175,63.708721 460.000122,56.142918 
z"/>
<path fill="#EF3E56" opacity="1.000000" stroke="none" 
	d="
M301.394836,79.138863 
	C300.775055,80.534592 300.734833,81.978004 299.998627,82.607780 
	C298.420868,83.957458 296.276123,85.972054 294.752380,85.680725 
	C293.253235,85.394119 291.562012,82.745865 291.137329,80.866699 
	C290.067383,76.132370 289.771240,71.228577 288.929443,66.434067 
	C288.664337,64.924271 287.651825,63.545712 286.981384,62.107086 
	C286.488281,62.111935 285.995178,62.116783 285.502075,62.121632 
	C284.668060,66.651566 283.759857,71.169754 283.039734,75.717712 
	C282.782593,77.341675 283.576935,79.399323 282.836914,80.619476 
	C281.605011,82.650581 279.522614,84.165825 277.798370,85.898300 
	C276.199158,83.913063 273.069611,81.758041 273.267761,79.972183 
	C274.091431,72.547333 273.702148,65.371323 272.155243,58.092918 
	C271.773529,56.297058 273.297974,54.096088 273.946167,52.081352 
	C275.953125,52.979107 277.960052,53.876858 280.242523,54.897873 
	C286.344452,48.004421 294.711792,52.271374 296.559174,62.760422 
	C298.769348,60.633968 300.689514,57.954350 303.291931,56.474586 
	C307.360168,54.161373 311.705627,55.720222 313.932983,59.885479 
	C317.881439,67.269295 319.772491,75.331863 320.494995,83.584732 
	C320.723907,86.199295 319.656128,89.090218 315.785492,89.025444 
	C312.094391,88.963684 311.313049,86.938148 310.893982,83.645584 
	C310.133423,77.670128 308.727478,71.776825 307.368317,64.688316 
	C301.806519,69.358070 302.321411,74.296745 301.394836,79.138863 
z"/>
<path fill="#EF3E56" opacity="1.000000" stroke="none" 
	d="
M537.745239,79.231102 
	C536.280518,77.053345 535.069153,75.135887 533.632324,72.861679 
	C532.616577,74.057770 531.590454,74.894562 531.041748,75.974045 
	C528.032898,81.893661 520.663818,82.177216 515.419678,80.043404 
	C510.200806,77.919853 507.973724,71.358070 510.022797,65.493477 
	C511.720306,60.635178 514.082886,55.971050 519.171082,54.137424 
	C521.362671,53.347649 525.413147,53.489594 526.511108,54.876785 
	C528.182129,56.987900 527.349182,60.155979 523.697449,61.171448 
	C522.836426,61.410858 522.004761,62.290699 521.474548,63.085915 
	C519.761902,65.654434 516.167053,68.798729 519.499207,71.390076 
	C522.605957,73.806084 525.786011,70.660507 527.994995,67.903061 
	C529.008911,66.637405 529.694336,65.106995 530.718262,63.851238 
	C533.184631,60.826591 538.351379,61.320377 540.280945,64.661415 
	C542.456848,68.428970 544.672119,72.173775 546.892700,75.966835 
	C548.560730,75.578255 549.779785,75.047554 550.993530,75.059364 
	C554.195862,75.090523 555.907898,77.717545 554.054504,80.324593 
	C552.455017,82.574547 549.952209,85.444656 547.673889,85.608482 
	C545.204102,85.786079 542.489197,83.220512 539.972839,81.699585 
	C539.164978,81.211296 538.648438,80.241112 537.745239,79.231102 
z"/>
<path fill="#EF3E56" opacity="1.000000" stroke="none" 
	d="
M409.214996,82.336494 
	C405.213806,81.443810 401.518982,80.303566 397.160767,78.958595 
	C397.167511,78.946564 396.607910,80.029427 395.975616,81.068031 
	C391.537689,88.357666 379.888489,89.561127 374.610413,82.810043 
	C373.191040,80.994606 373.020966,77.041496 373.965027,74.771500 
	C376.197266,69.403763 379.235443,64.326981 382.343536,59.381290 
	C384.956696,55.223267 395.708832,54.242973 399.098969,57.873665 
	C400.173370,59.024311 399.930756,61.404720 400.466858,64.110825 
	C400.847534,64.593994 401.945801,66.102684 403.163818,67.507561 
	C405.073730,69.710464 406.853943,72.094925 409.069000,73.948463 
	C412.639038,76.935890 412.879852,78.559601 409.214996,82.336494 
M391.620605,64.001389 
	C386.068542,64.213432 384.557373,68.547348 383.026062,72.662056 
	C381.326904,77.227867 382.135895,78.324287 386.942810,77.904152 
	C388.259094,77.789108 390.075043,76.824387 390.626038,75.728737 
	C392.417145,72.167244 393.728485,68.364464 395.344391,64.357262 
	C394.026123,64.196213 393.230957,64.099075 391.620605,64.001389 
z"/>
<path fill="#EF3E56" opacity="1.000000" stroke="none" 
	d="
M253.000214,55.897766 
	C253.525085,51.580055 253.638855,47.604397 254.802292,43.964214 
	C255.198898,42.723244 258.681519,41.278160 259.947540,41.817951 
	C261.408752,42.440975 263.023376,45.318611 262.769470,46.934010 
	C260.829498,59.276558 262.499390,71.425369 263.906769,83.628700 
	C264.074188,85.080345 262.919525,87.979919 262.321259,87.995171 
	C260.005554,88.054184 256.823730,87.965408 255.547638,86.527077 
	C253.904022,84.674492 253.218018,81.496323 253.109406,78.848495 
	C252.802536,71.367165 253.000946,63.865108 253.000214,55.897766 
z"/>
<path fill="#F5F5F5" opacity="1.000000" stroke="none" 
	d="
M169.519394,105.639954 
	C169.649460,103.093674 169.865234,100.911911 169.495331,98.834435 
	C168.760010,94.704643 170.254227,93.311836 174.377457,93.671547 
	C176.642899,93.869179 178.211487,93.314369 177.757919,96.797501 
	C176.469040,106.695389 175.775665,116.669968 174.564896,126.579788 
	C174.378143,128.108246 172.699448,129.454407 171.710724,130.884888 
	C170.999557,129.371094 169.740173,127.881569 169.671936,126.339333 
	C169.373077,119.585098 169.419266,112.815590 169.519394,105.639954 
z"/>
<path fill="#F6F6F6" opacity="1.000000" stroke="none" 
	d="
M162.425568,119.851196 
	C161.875717,119.678703 161.694427,119.435829 161.244949,119.131302 
	C160.473053,110.563583 159.670624,102.113518 159.477631,93.649551 
	C159.423386,91.271072 160.874954,88.669914 162.229767,86.550598 
	C162.699127,85.816360 164.999023,86.025703 166.392212,86.247498 
	C166.807251,86.313583 167.227341,87.886551 167.227173,88.769005 
	C167.226166,93.926865 167.068726,99.084450 167.026901,104.242630 
	C166.985306,109.372772 167.017792,114.503532 167.017792,119.951874 
	C165.396133,119.865326 164.129105,119.797699 162.425568,119.851196 
z"/>
<path fill="#EF3E56" opacity="1.000000" stroke="none" 
	d="
M253.399750,21.003777 
	C255.820389,21.013815 258.009827,20.501759 259.738953,21.173882 
	C261.845795,21.992823 265.594788,21.915283 264.887390,25.717636 
	C264.187347,29.480282 261.026825,30.638754 257.638123,30.837395 
	C256.251160,30.918697 254.636917,30.594576 253.456863,29.896051 
	C251.811676,28.922220 249.132431,27.200771 249.298935,26.198521 
	C249.611557,24.316822 251.646057,22.721178 253.399750,21.003777 
z"/>
<path fill="#F8F8F8" opacity="1.000000" stroke="none" 
	d="
M11.995326,124.388016 
	C12.176375,124.585907 12.376746,124.811066 12.577116,125.036232 
	C12.442885,124.959740 12.308655,124.883247 12.067269,124.588135 
	C11.960114,124.369514 12.014647,124.415291 11.995326,124.388016 
z"/>
<path fill="#000000" opacity="1.000000" stroke="none" 
	d="
M109.838600,113.062866 
	C108.179626,113.471367 106.976761,114.033630 105.726227,114.175385 
	C97.351273,115.124756 88.974411,116.513031 80.580780,116.643867 
	C76.563889,116.706474 72.428413,114.538605 68.490700,113.009880 
	C62.940693,110.855202 57.085320,109.023956 52.184086,105.801704 
	C47.942272,103.012993 44.364914,98.820679 41.387077,94.616158 
	C38.580170,90.652985 36.607151,85.987671 34.898582,81.396309 
	C33.705887,78.191223 33.243958,74.608795 33.050312,71.161514 
	C32.743134,65.693077 32.862343,60.195843 32.931030,54.712414 
	C33.012123,48.238556 38.019257,44.086533 40.700638,38.846848 
	C43.684349,33.016376 49.153755,29.899216 55.079556,27.903957 
	C61.812607,25.636892 68.773972,24.054991 75.550323,21.904915 
	C77.462700,21.298136 78.989494,18.977018 80.840446,18.771963 
	C85.832001,18.218990 90.903465,18.261555 95.942261,18.283678 
	C113.454041,18.360567 123.341278,30.202848 130.359558,43.508453 
	C136.203033,54.586807 138.454437,67.512512 135.009598,80.392883 
	C133.560455,85.811272 132.457047,91.591988 129.674042,96.309944 
	C126.729027,101.302582 122.210732,105.481667 117.900780,109.502884 
	C115.956291,111.317123 112.851181,111.887428 109.838600,113.062866 
M55.980934,86.803825 
	C56.041470,87.536713 56.102001,88.269608 56.029194,89.725975 
	C58.360901,95.171898 62.072628,98.991508 68.166122,99.973419 
	C72.100571,100.607407 76.040207,101.209122 80.798584,102.032700 
	C85.540039,102.419624 90.329948,102.505508 95.012337,103.259338 
	C103.429802,104.614494 114.933907,98.793152 117.855186,91.358292 
	C118.464790,89.806801 118.786949,87.882301 119.904610,86.842155 
	C122.609497,84.324844 122.414818,81.793518 121.055695,78.804565 
	C120.542313,77.675545 120.559441,76.305290 120.796600,74.357574 
	C121.153343,67.381958 121.743362,60.372742 117.987274,53.184723 
	C117.326172,51.089394 116.357346,49.036644 116.060432,46.890919 
	C115.087708,39.861282 108.054901,32.767696 100.810692,32.033234 
	C97.683777,31.716206 94.023552,32.795834 91.462929,31.520132 
	C85.136932,28.368517 79.686554,30.527958 73.279404,33.212311 
	C71.712303,33.477261 70.148361,33.949066 68.577583,33.973022 
	C59.514339,34.111267 52.144535,38.195446 46.848667,45.009094 
	C44.487450,48.047024 44.275658,52.931488 43.650127,57.062943 
	C43.368183,58.925095 44.460678,60.995342 44.998394,62.996864 
	C44.998394,62.996864 44.943577,62.947899 44.276272,63.288223 
	C43.899574,65.195229 43.522881,67.102226 43.007233,69.839935 
	C43.239937,77.566216 46.371212,84.200600 55.519554,85.953278 
	C55.519554,85.953278 55.905594,86.069313 55.980934,86.803825 
z"/>
<path fill="#FEEEF0" opacity="1.000000" stroke="none" 
	d="
M553.612061,140.188904 
	C552.305054,138.943054 550.490662,137.523849 550.641968,136.360382 
	C550.902283,134.359711 552.388062,132.518463 553.489319,130.355225 
	C551.326965,130.249130 549.196411,130.144608 547.065918,130.040085 
	C547.102783,129.517914 547.139648,128.995728 547.176514,128.473557 
	C551.496887,126.320160 555.676758,126.736641 560.405579,129.485199 
	C558.441711,132.070969 556.774597,134.265945 555.126099,136.436478 
	C556.671753,138.828201 563.937927,137.886566 559.212280,143.685532 
	C560.745850,144.294891 562.284363,144.901031 564.649719,145.832916 
	C560.663574,147.277817 557.708435,148.529587 554.639099,149.358795 
	C553.631409,149.631042 552.107239,149.071213 551.261414,148.363449 
	C550.891785,148.054184 551.390320,146.264145 551.923401,145.416061 
	C552.889893,143.878326 554.177612,142.542480 555.331238,141.122345 
	C554.883850,140.791763 554.436462,140.461197 553.612061,140.188904 
z"/>
<path fill="#FDECEE" opacity="1.000000" stroke="none" 
	d="
M361.017212,141.956528 
	C356.090851,141.920059 353.497620,139.194885 352.553925,134.590378 
	C351.940216,131.595932 351.352020,128.596268 350.752411,125.598930 
	C351.389038,125.287933 352.025665,124.976929 352.662292,124.665924 
	C354.131104,126.806374 355.599915,128.946823 357.262482,131.369690 
	C358.120850,131.220413 359.705414,130.944839 361.510498,130.630920 
	C361.510498,128.240662 361.510498,126.003540 361.510498,123.612656 
	C364.933105,122.912758 366.297028,124.762299 365.555237,127.336189 
	C364.172363,132.134613 362.125854,136.741776 360.671265,141.706726 
	C360.986969,141.984924 361.017212,141.956528 361.017212,141.956528 
z"/>
<path fill="#FEF3F4" opacity="1.000000" stroke="none" 
	d="
M466.970093,138.245697 
	C464.907013,140.801697 463.123688,143.667084 460.717102,145.843216 
	C456.836182,149.352509 453.310303,148.823715 451.167603,144.036865 
	C449.608582,140.553986 449.284912,136.470779 448.775024,132.607117 
	C448.677582,131.868851 450.281464,130.906067 451.100403,130.046860 
	C451.804138,131.021637 452.515747,131.990952 453.200409,132.978943 
	C453.275726,133.087570 453.162537,133.310074 453.193787,133.468475 
	C453.840088,136.741364 454.494598,140.012634 455.147491,143.284210 
	C457.854401,141.580063 460.507172,139.778244 463.300171,138.229279 
	C464.176300,137.743378 465.429688,137.937653 466.747864,138.130569 
	C466.985321,138.440552 466.970123,138.245712 466.970093,138.245697 
z"/>
<path fill="#FEEEF0" opacity="1.000000" stroke="none" 
	d="
M371.986176,141.051727 
	C375.286682,140.639175 376.529816,141.680435 375.386749,145.174835 
	C374.488434,147.921127 374.143494,150.848450 373.479187,154.049652 
	C366.736969,157.131836 362.485260,154.057022 361.111572,142.355331 
	C361.017212,141.956528 360.986969,141.984924 360.972656,141.999939 
	C361.990143,142.353485 363.102386,142.545639 364.037537,143.059860 
	C366.234894,144.268127 368.347656,145.630295 371.166992,147.337265 
	C371.901733,144.468460 372.253845,143.093643 372.312256,141.375168 
	C372.018585,141.031509 371.986176,141.051727 371.986176,141.051727 
z"/>
<path fill="#FEF2F4" opacity="1.000000" stroke="none" 
	d="
M467.188293,138.749451 
	C466.970123,138.245712 466.985321,138.440552 466.978912,138.472260 
	C467.145752,134.809723 467.318970,131.115463 467.502106,127.210358 
	C472.291504,128.586014 471.929688,132.845322 472.263397,136.721649 
	C474.891022,136.721649 477.359436,136.721649 479.827881,136.721649 
	C479.879150,137.005981 479.930420,137.290314 479.981689,137.574661 
	C479.027771,138.086243 478.111969,138.693405 477.112946,139.091995 
	C473.716095,140.447342 470.932098,142.142853 470.679749,146.422028 
	C470.618469,147.460846 468.994537,148.407532 468.089142,149.396576 
	C467.566162,148.150253 466.633728,146.911133 466.611633,145.656006 
	C466.574188,143.527039 467.111023,141.387985 467.188293,138.749451 
z"/>
<path fill="#FEF4F5" opacity="1.000000" stroke="none" 
	d="
M566.881775,137.776627 
	C566.631348,133.970230 566.365723,130.595749 566.070312,126.842674 
	C571.492615,128.601974 570.786011,133.063843 571.378418,136.424438 
	C573.953308,136.424438 576.307922,136.424438 578.662598,136.424438 
	C578.784668,136.785477 578.906738,137.146515 579.028809,137.507553 
	C577.662842,138.115799 576.001648,138.419998 574.994385,139.397812 
	C573.104858,141.232101 571.576111,143.442276 569.931824,145.523376 
	C569.020386,146.676910 568.178833,147.885651 567.305786,149.069519 
	C566.795593,147.569153 565.884155,146.072159 565.871521,144.567612 
	C565.853760,142.450851 566.502747,140.328491 566.881775,137.776627 
z"/>
<path fill="#FDE7EA" opacity="1.000000" stroke="none" 
	d="
M271.843018,150.055206 
	C271.742401,151.819687 271.643066,153.172485 271.543732,154.525269 
	C270.872742,154.544739 270.201752,154.564224 269.530731,154.583694 
	C269.235352,150.918137 268.940002,147.252579 268.693573,144.194504 
	C277.160522,141.784119 282.629852,142.617493 281.873688,152.461288 
	C280.052551,152.995209 277.446381,153.759277 273.918518,154.793564 
	C275.479156,151.295456 276.563232,148.865570 277.647308,146.435684 
	C277.084534,146.038437 276.521759,145.641174 275.958984,145.243927 
	C274.587433,146.710449 273.215881,148.176987 271.843018,150.055206 
z"/>
<path fill="#FEF2F4" opacity="1.000000" stroke="none" 
	d="
M372.028931,141.015839 
	C371.082733,139.923477 369.311005,138.849457 369.307495,137.769684 
	C369.290039,132.427902 369.739960,127.084618 370.056488,121.154686 
	C375.613678,122.769402 374.100525,127.504799 374.363495,131.543213 
	C376.792175,131.543213 379.245667,131.543213 381.494781,131.543213 
	C378.117249,134.578857 374.920593,137.451920 371.855042,140.688354 
	C371.986176,141.051727 372.018585,141.031509 372.028931,141.015839 
z"/>
<path fill="#FDECEF" opacity="1.000000" stroke="none" 
	d="
M267.002747,127.091949 
	C269.652313,131.933044 268.975830,137.916733 265.423431,141.490921 
	C264.708710,142.210022 263.211395,142.151291 262.074890,142.451187 
	C261.985016,141.285294 261.426666,139.872055 261.888489,138.997467 
	C263.638947,135.682358 266.202301,132.658569 264.244629,127.959999 
	C261.656921,128.759109 259.143158,129.535370 256.284760,130.418060 
	C257.993195,125.083015 261.306335,124.117126 267.002747,127.091949 
z"/>
<path fill="#FEF1F3" opacity="1.000000" stroke="none" 
	d="
M281.189453,133.860077 
	C280.680634,136.882126 280.174500,139.440994 279.668365,141.999847 
	C278.934601,141.960358 278.200867,141.920853 277.467102,141.881348 
	C277.097229,135.149155 276.727386,128.416962 276.306946,120.764023 
	C282.530640,123.821297 280.712952,129.059509 281.189453,133.860077 
z"/>
<path fill="#000000" opacity="1.000000" stroke="none" 
	d="
M566.730835,51.782639 
	C566.230347,52.461266 565.986389,52.880764 565.491211,53.732094 
	C564.968201,48.768829 564.468567,44.178860 564.004272,39.585323 
	C563.346069,33.072945 562.737915,26.555424 562.060913,20.045044 
	C561.698242,16.557976 563.526001,14.882191 566.547791,15.998280 
	C569.069275,16.929613 571.986328,18.684507 573.201477,20.908731 
	C577.074463,27.998318 577.964233,35.449333 573.066040,42.660278 
	C571.053040,45.623699 569.014282,48.569618 566.730835,51.782639 
z"/>
<path fill="#000000" opacity="1.000000" stroke="none" 
	d="
M356.256897,78.245094 
	C353.587006,80.454582 351.173187,82.410202 348.481689,84.590775 
	C347.654419,80.753510 346.520050,76.973724 346.100647,73.116196 
	C345.705994,69.485962 345.168274,65.673683 349.833374,63.546494 
	C354.460968,61.436394 358.517487,57.947495 363.247437,56.223965 
	C367.942932,54.512978 369.643524,56.758228 367.985504,61.472507 
	C365.682922,68.019272 362.094940,73.706055 356.256897,78.245094 
z"/>
<path fill="#000000" opacity="1.000000" stroke="none" 
	d="
M343.994629,46.114098 
	C342.865234,41.253822 341.741516,36.821537 340.506439,31.949903 
	C347.500214,33.332664 353.601715,40.054989 353.888947,45.694164 
	C354.082062,49.485977 350.635254,53.130840 345.416626,54.685246 
	C344.944977,51.973480 344.472626,49.257782 343.994629,46.114098 
z"/>
<path fill="#000000" opacity="1.000000" stroke="none" 
	d="
M392.028198,64.001663 
	C393.230957,64.099075 394.026123,64.196213 395.344391,64.357262 
	C393.728485,68.364464 392.417145,72.167244 390.626038,75.728737 
	C390.075043,76.824387 388.259094,77.789108 386.942810,77.904152 
	C382.135895,78.324287 381.326904,77.227867 383.026062,72.662056 
	C384.557373,68.547348 386.068542,64.213432 392.028198,64.001663 
z"/>
<path fill="#059124" opacity="1.000000" stroke="none" 
	d="
M117.865868,54.006905 
	C121.743362,60.372742 121.153343,67.381958 120.182434,74.762955 
	C117.797211,76.494041 114.850739,77.537506 114.453255,79.193001 
	C112.452637,87.525345 104.848724,89.011482 98.982727,90.164154 
	C93.665489,91.209007 87.079712,91.530190 81.492867,88.428505 
	C80.702171,87.989525 79.568016,88.169228 78.378204,87.817581 
	C77.288582,85.939919 76.413589,84.307251 75.695343,82.365479 
	C75.975685,80.826263 76.670219,79.182999 76.128471,78.434364 
	C73.047050,74.176224 74.130852,69.701317 75.045212,64.820938 
	C77.855270,62.071018 80.571571,59.689014 83.652718,57.331287 
	C84.820404,57.515896 85.682037,57.540215 86.416878,57.857868 
	C92.798035,60.616299 99.102921,63.483372 106.076340,59.379829 
	C107.817642,58.355156 110.000938,58.112705 111.869156,57.264282 
	C113.935081,56.326077 115.872490,55.104866 117.865868,54.006905 
z"/>
<path fill="#F7FB28" opacity="1.000000" stroke="none" 
	d="
M117.926575,53.595814 
	C115.872490,55.104866 113.935081,56.326077 111.869156,57.264282 
	C110.000938,58.112705 107.817642,58.355156 106.076340,59.379829 
	C99.102921,63.483372 92.798035,60.616299 86.416878,57.857868 
	C85.682037,57.540215 84.820404,57.515896 83.691742,56.958958 
	C83.176582,54.658195 83.261261,52.675060 82.739975,50.866592 
	C81.703896,47.272148 79.698250,43.847561 79.277412,40.215576 
	C78.838402,36.426807 77.107719,34.303753 74.017471,32.761551 
	C79.686554,30.527958 85.136932,28.368517 91.462929,31.520132 
	C94.023552,32.795834 97.683777,31.716206 100.810692,32.033234 
	C108.054901,32.767696 115.087708,39.861282 116.060432,46.890919 
	C116.357346,49.036644 117.326172,51.089394 117.926575,53.595814 
z"/>
<path fill="#F83F58" opacity="1.000000" stroke="none" 
	d="
M74.951462,65.188850 
	C74.130852,69.701317 73.047050,74.176224 76.128471,78.434364 
	C76.670219,79.182999 75.975685,80.826263 75.357437,82.502373 
	C70.244492,83.961617 65.626205,84.974861 60.786972,85.721542 
	C59.427708,85.264366 58.289394,85.073746 56.927376,84.677933 
	C56.183319,84.919998 55.662964,85.367264 55.142605,85.814529 
	C46.371212,84.200600 43.239937,77.566216 43.445847,69.335846 
	C44.237499,66.870468 44.590538,64.909180 44.943573,62.947899 
	C44.943577,62.947899 44.998394,62.996864 45.299751,62.844654 
	C48.095013,61.187038 50.588921,59.681633 53.488411,58.115234 
	C59.569794,56.375660 65.028008,56.509827 70.221840,60.297867 
	C71.890465,62.128468 73.420967,63.658657 74.951462,65.188850 
z"/>
<path fill="#603209" opacity="1.000000" stroke="none" 
	d="
M78.592827,88.062569 
	C79.568016,88.169228 80.702171,87.989525 81.492867,88.428505 
	C87.079712,91.530190 93.665489,91.209007 98.982727,90.164154 
	C104.848724,89.011482 112.452637,87.525345 114.453255,79.193001 
	C114.850739,77.537506 117.797211,76.494041 119.951492,75.106674 
	C120.559441,76.305290 120.542313,77.675545 121.055695,78.804565 
	C122.414818,81.793518 122.609497,84.324844 119.904610,86.842155 
	C118.786949,87.882301 118.464790,89.806801 117.855186,91.358292 
	C114.933907,98.793152 103.429802,104.614494 95.012337,103.259338 
	C90.329948,102.505508 85.540039,102.419624 80.366783,101.548569 
	C79.487595,96.730484 79.040215,92.396530 78.592827,88.062569 
z"/>
<path fill="#EE7E5B" opacity="1.000000" stroke="none" 
	d="
M75.045212,64.820938 
	C73.420967,63.658657 71.890465,62.128468 70.564468,60.257774 
	C71.611786,59.411266 72.478073,58.940277 73.293587,58.393570 
	C78.529396,54.883617 78.934494,53.210209 76.057762,44.676083 
	C74.675606,40.575760 71.139709,39.914631 67.388748,40.011700 
	C59.306293,40.220863 53.413803,47.731907 53.082829,58.176231 
	C50.588921,59.681633 48.095013,61.187038 45.265335,62.831810 
	C44.460678,60.995342 43.368183,58.925095 43.650127,57.062943 
	C44.275658,52.931488 44.487450,48.047024 46.848667,45.009094 
	C52.144535,38.195446 59.514339,34.111267 68.577583,33.973022 
	C70.148361,33.949066 71.712303,33.477261 73.648438,32.986931 
	C77.107719,34.303753 78.838402,36.426807 79.277412,40.215576 
	C79.698250,43.847561 81.703896,47.272148 82.739975,50.866592 
	C83.261261,52.675060 83.176582,54.658195 83.326904,56.934677 
	C80.571571,59.689014 77.855270,62.071018 75.045212,64.820938 
z"/>
<path fill="#F0A488" opacity="1.000000" stroke="none" 
	d="
M78.378204,87.817581 
	C79.040215,92.396530 79.487595,96.730484 79.956253,101.444870 
	C76.040207,101.209122 72.100571,100.607407 68.166122,99.973419 
	C62.072628,98.991508 58.360901,95.171898 56.461464,89.360413 
	C58.265125,87.992599 59.636520,86.990356 61.007915,85.988113 
	C65.626205,84.974861 70.244492,83.961617 75.200684,82.811478 
	C76.413589,84.307251 77.288582,85.939919 78.378204,87.817581 
z"/>
<path fill="#F28279" opacity="1.000000" stroke="none" 
	d="
M60.786972,85.721542 
	C59.636520,86.990356 58.265125,87.992599 56.528133,88.998672 
	C56.102001,88.269608 56.041470,87.536713 56.218281,86.319489 
	C56.687443,85.517807 56.919262,85.200462 57.151077,84.883125 
	C58.289394,85.073746 59.427708,85.264366 60.786972,85.721542 
z"/>
<path fill="#EE7E5B" opacity="1.000000" stroke="none" 
	d="
M44.609924,63.118061 
	C44.590538,64.909180 44.237499,66.870468 43.515320,68.920486 
	C43.522881,67.102226 43.899574,65.195229 44.609924,63.118061 
z"/>
<path fill="#EBA8AA" opacity="1.000000" stroke="none" 
	d="
M56.927376,84.677933 
	C56.919262,85.200462 56.687443,85.517807 56.180611,85.952225 
	C55.905594,86.069313 55.519554,85.953278 55.331078,85.883904 
	C55.662964,85.367264 56.183319,84.919998 56.927376,84.677933 
z"/>
<path fill="#FA8157" opacity="1.000000" stroke="none" 
	d="
M53.488411,58.115234 
	C53.413803,47.731907 59.306293,40.220863 67.388748,40.011700 
	C71.139709,39.914631 74.675606,40.575760 76.057762,44.676083 
	C78.934494,53.210209 78.529396,54.883617 73.293587,58.393570 
	C72.478073,58.940277 71.611786,59.411266 70.426346,59.957363 
	C65.028008,56.509827 59.569794,56.375660 53.488411,58.115234 
z"/>
</svg>