<svg width="24" height="30" viewBox="0 0 24 30" fill="none" xmlns="http://www.w3.org/2000/svg">
<path d="M12 0.420898C15.1826 0.420898 18.2348 1.68518 20.4853 3.93562C22.7357 6.18605 24 9.2383 24 12.4209C24 17.4917 20.4369 23.0178 13.4031 29.0584C13.012 29.3944 12.5133 29.5789 11.9977 29.5785C11.4821 29.578 10.9838 29.3926 10.5932 29.056L10.128 28.6523C3.40554 22.7692 0 17.3784 0 12.4209C0 9.2383 1.26428 6.18605 3.51472 3.93562C5.76516 1.68518 8.8174 0.420898 12 0.420898ZM12 2.26705C9.30703 2.26705 6.72436 3.33683 4.82015 5.24104C2.91593 7.14526 1.84615 9.72793 1.84615 12.4209C1.84615 16.7311 4.98215 21.6972 11.3403 27.2603L11.7994 27.6578C11.8552 27.7058 11.9264 27.7322 12 27.7322C12.0736 27.7322 12.1448 27.7058 12.2006 27.6578C18.8665 21.9323 22.1538 16.8332 22.1538 12.4209C22.1538 11.0875 21.8912 9.76711 21.3809 8.53519C20.8707 7.30327 20.1227 6.18392 19.1799 5.24104C18.237 4.29817 17.1176 3.55025 15.8857 3.03997C14.6538 2.52969 13.3334 2.26705 12 2.26705ZM12 7.80551C13.2241 7.80551 14.398 8.29178 15.2636 9.15733C16.1291 10.0229 16.6154 11.1968 16.6154 12.4209C16.6154 13.645 16.1291 14.8189 15.2636 15.6845C14.398 16.55 13.2241 17.0363 12 17.0363C10.7759 17.0363 9.60198 16.55 8.73643 15.6845C7.87088 14.8189 7.38462 13.645 7.38462 12.4209C7.38462 11.1968 7.87088 10.0229 8.73643 9.15733C9.60198 8.29178 10.7759 7.80551 12 7.80551ZM12 9.65167C11.2656 9.65167 10.5612 9.94343 10.0419 10.4628C9.52253 10.9821 9.23077 11.6865 9.23077 12.4209C9.23077 13.1553 9.52253 13.8597 10.0419 14.379C10.5612 14.8984 11.2656 15.1901 12 15.1901C12.7344 15.1901 13.4388 14.8984 13.9581 14.379C14.4775 13.8597 14.7692 13.1553 14.7692 12.4209C14.7692 11.6865 14.4775 10.9821 13.9581 10.4628C13.4388 9.94343 12.7344 9.65167 12 9.65167Z" fill="#B72A5C"/>
</svg>
