<svg width="29" height="29" viewBox="0 0 29 29" fill="none" xmlns="http://www.w3.org/2000/svg">
<path d="M18.3597 2.02214C18.3973 1.87717 18.4909 1.75303 18.6199 1.67687C18.7488 1.6007 18.9027 1.57873 19.0479 1.61574C21.0531 2.13803 22.8827 3.18593 24.3479 4.65131C25.813 6.11668 26.8606 7.94646 27.3825 9.95183C27.4196 10.0968 27.3978 10.2505 27.3219 10.3794C27.2461 10.5084 27.1223 10.602 26.9776 10.64C26.9315 10.6531 26.8838 10.6598 26.836 10.6598C26.7107 10.6594 26.5891 10.6175 26.4902 10.5407C26.3913 10.4638 26.3207 10.3563 26.2894 10.235C25.8166 8.42546 24.8702 6.7745 23.5477 5.45198C22.2252 4.12946 20.5742 3.18313 18.7647 2.71032C18.62 2.67235 18.4962 2.57867 18.4203 2.44973C18.3444 2.3208 18.3226 2.16708 18.3597 2.02214ZM17.6319 7.24157C19.7559 7.81223 21.1875 9.24382 21.7581 11.3678C21.7894 11.4891 21.8601 11.5966 21.959 11.6735C22.0579 11.7503 22.1794 11.7922 22.3047 11.7926C22.3526 11.7926 22.4002 11.786 22.4463 11.7728C22.5912 11.734 22.7147 11.6393 22.7898 11.5095C22.8649 11.3797 22.8855 11.2253 22.847 11.0804C22.1673 8.53156 20.4611 6.83234 17.9151 6.14699C17.7735 6.11963 17.6269 6.14724 17.5051 6.22421C17.3832 6.30117 17.2953 6.42169 17.2592 6.56122C17.2231 6.70076 17.2415 6.8488 17.3108 6.97521C17.38 7.10161 17.4948 7.19687 17.6319 7.24157ZM28.5267 21.2205C28.2916 23.0032 27.4154 24.6392 26.0619 25.8229C24.7083 27.0066 22.97 27.6568 21.1719 27.652C10.2402 27.652 1.34767 18.7594 1.34767 7.8278C1.34395 6.03043 1.99463 4.29316 3.1782 2.94048C4.36176 1.58779 5.99726 0.712211 7.77921 0.477266C8.14428 0.432884 8.51389 0.508134 8.83254 0.691715C9.15119 0.875297 9.40168 1.1573 9.5464 1.49538L12.5342 8.17048C12.6459 8.42931 12.6914 8.71186 12.6667 8.99267C12.642 9.27348 12.5478 9.54373 12.3926 9.77907C12.3798 9.79748 12.3671 9.81589 12.3529 9.83288L9.35099 13.4027C9.30388 13.4809 9.2769 13.5695 9.27245 13.6607C9.268 13.7519 9.28623 13.8428 9.3255 13.9252C10.4357 16.1979 12.816 18.5598 15.1156 19.6699C15.1986 19.7085 15.2899 19.7259 15.3813 19.7207C15.4727 19.7155 15.5614 19.6879 15.6395 19.6402L19.1611 16.6496L19.215 16.6085C19.4506 16.4528 19.7214 16.3584 20.0027 16.3337C20.2841 16.3089 20.5672 16.3547 20.8264 16.4669L27.5128 19.4632C27.8475 19.6088 28.1264 19.8584 28.3083 20.1748C28.4901 20.4913 28.5652 20.858 28.5224 21.2205H28.5267ZM27.0611 20.4955L20.3718 17.4992C20.2906 17.4651 20.2024 17.4508 20.1145 17.4574C20.0266 17.464 19.9415 17.4915 19.8663 17.5374L16.3574 20.528L16.305 20.5677C16.0611 20.7306 15.7791 20.8276 15.4865 20.8491C15.194 20.8707 14.9008 20.8162 14.6356 20.6909C12.0867 19.4604 9.55065 16.9413 8.32013 14.4222C8.19358 14.159 8.137 13.8676 8.15585 13.5762C8.1747 13.2847 8.26834 13.0031 8.42775 12.7584C8.44049 12.7385 8.45465 12.7216 8.46881 12.7031L11.4694 9.13479C11.5143 9.05831 11.5407 8.97233 11.5464 8.88378C11.552 8.79524 11.5368 8.7066 11.5019 8.62502L8.50846 1.94992C8.46628 1.84644 8.39443 1.75775 8.30196 1.69501C8.20949 1.63227 8.10053 1.59829 7.98878 1.59733C7.96615 1.59593 7.94345 1.59593 7.92082 1.59733C6.4117 1.79729 5.02708 2.54005 4.02582 3.68673C3.02456 4.83341 2.47521 6.30551 2.48048 7.8278C2.48048 18.1336 10.8661 26.5192 21.1719 26.5192C22.6942 26.5245 24.1663 25.9751 25.313 24.9739C26.4596 23.9726 27.2024 22.588 27.4024 21.0789C27.4154 20.9574 27.3888 20.8349 27.3265 20.7298C27.2643 20.6246 27.1697 20.5424 27.0568 20.4955H27.0611Z" fill="#B72A5C" stroke="#B72A5C" stroke-width="0.75"/>
</svg>
